# xmcd
#
# Track frame offsets: 
#        150
#        30840
#        51955
#        72243
#        97876
#        122830
#        149984
#        178534
#        197333
#        225776
#        241068
#        259130
#        284412
#        315060
#
# Disc length: 4429 seconds
#
# Revision: 0
# Processed by: cddbd v1.5.2PL0 Copyright (c) Steve Scherf et al.
# Submitted via: ExactAudioCopyFreeDBPlugin 1.0
#
DISCID=b4114b0e
DTITLE=Holiday,Billie - Long Play Collection-6 Originals CD3
DYEAR=1900
DGENRE=Blues
TTITLE0=Holiday,Billie Songs for distingué lovers - Day In, Day Out
TTITLE1=Holiday,Billie Songs for distingué lovers - A Foggy Day
TTITLE2=Holiday,Billie Songs for distingué lovers - Stars Fell On Alab
TTITLE2=ama
TTITLE3=Holiday,Billie Songs for distingué lovers - One For My Baby (A
TTITLE3=nd One More For The Road)
TTITLE4=Holiday,Billie Songs for distingué lovers - Just One Of Those 
TTITLE4=Things
TTITLE5=Holiday,Billie Songs for distingué lovers - I Didn't Know What
TTITLE5=Time It Was
TTITLE6=Holiday,Billie Body and soul - Body And Soul
TTITLE7=Holiday,Billie Body and soul - They Can't Take That Away From 
TTITLE7=Me
TTITLE8=Holiday,Billie Body and soul - Darn That Dream
TTITLE9=Holiday,Billie Body and soul - Let's Call The Whole Thing Off
TTITLE10=Holiday,Billie Body and soul - Comes Love
TTITLE11=Holiday,Billie Body and soul - Gee Baby, Ain't I Good To You
TTITLE12=Holiday,Billie Body and soul - Embraceable You
TTITLE13=Holiday,Billie Body and soul - Moonlight In Vermont
EXTD=
EXTT0=
EXTT1=
EXTT2=
EXTT3=
EXTT4=
EXTT5=
EXTT6=
EXTT7=
EXTT8=
EXTT9=
EXTT10=
EXTT11=
EXTT12=
EXTT13=
PLAYORDER=
